<?xml version="1.0" encoding="UTF-8" standalone="no"?>
<!-- Created with Inkscape (http://www.inkscape.org/) -->

<svg
   xmlns:dc="http://purl.org/dc/elements/1.1/"
   xmlns:cc="http://creativecommons.org/ns#"
   xmlns:rdf="http://www.w3.org/1999/02/22-rdf-syntax-ns#"
   xmlns:svg="http://www.w3.org/2000/svg"
   xmlns="http://www.w3.org/2000/svg"
   xmlns:sodipodi="http://sodipodi.sourceforge.net/DTD/sodipodi-0.dtd"
   xmlns:inkscape="http://www.inkscape.org/namespaces/inkscape"
   width="140.58907"
   height="40.09375"
   id="svg6302"
   version="1.1"
   inkscape:version="0.48.3.1 r9886"
   sodipodi:docname="hack4LT_small.svg">
  <defs
     id="defs6304" />
  <sodipodi:namedview
     id="base"
     pagecolor="#ffffff"
     bordercolor="#666666"
     borderopacity="1.0"
     inkscape:pageopacity="0.0"
     inkscape:pageshadow="2"
     inkscape:zoom="2.49"
     inkscape:cx="150.22197"
     inkscape:cy="-14.869741"
     inkscape:document-units="px"
     inkscape:current-layer="layer1"
     showgrid="false"
     inkscape:window-width="1229"
     inkscape:window-height="636"
     inkscape:window-x="49"
     inkscape:window-y="48"
     inkscape:window-maximized="0"
     inkscape:object-paths="false"
     fit-margin-top="0"
     fit-margin-left="0"
     fit-margin-right="0"
     fit-margin-bottom="0" />
  <metadata
     id="metadata6307">
    <rdf:RDF>
      <cc:Work
         rdf:about="">
        <dc:format>image/svg+xml</dc:format>
        <dc:type
           rdf:resource="http://purl.org/dc/dcmitype/StillImage" />
        <dc:title></dc:title>
      </cc:Work>
    </rdf:RDF>
  </metadata>
  <g
     inkscape:label="Layer 1"
     inkscape:groupmode="layer"
     id="layer1"
     transform="translate(9.5625,-636.84375)">
    <path
       style="fill:#3fa51b;fill-opacity:1;stroke:#1d5700;stroke-width:0.86005008;stroke-miterlimit:4;stroke-opacity:1;stroke-dasharray:none"
       d="m 10.319598,637.26848 c -10.7438778,0 -19.4556453,8.9227 -19.4556453,19.93047 0,9.16771 6.0452747,16.8853 14.271455,19.21078 0.031066,-0.0958 0.059637,-0.15813 0.089589,-0.25684 0.1088822,-0.35872 0.2054897,-0.7182 0.2448753,-0.9347 0.041875,-0.2302 0.1807205,-1.07432 0.3075874,-1.88436 l 0.2299439,-1.47222 0,-0.0151 0,-1.23037 c 0,-0.35454 0.00445,-0.60679 0,-0.8033 -0.00445,-0.19642 -0.01781,-0.33724 -0.056739,-0.46584 -0.038927,-0.12871 -0.1022601,-0.23518 -0.1970953,-0.36433 -0.094835,-0.12914 -0.2211711,-0.28089 -0.3941895,-0.49872 -0.3808615,-0.47952 -0.6661735,-0.87493 -0.8928991,-1.24529 -0.1133623,-0.18517 -0.2130877,-0.36383 -0.3016146,-0.5435 -0.088529,-0.17955 -0.1660793,-0.3608 -0.2389028,-0.54948 l -0.1702175,-0.43897 0.00597,-1.41551 c 0.00348,-0.89965 0.020983,-1.71853 0.050766,-2.38006 0.029781,-0.66152 0.071837,-1.16568 0.1194516,-1.4364 0.041895,-0.23821 0.081282,-0.44036 0.1284094,-0.62713 0.047127,-0.18669 0.1010451,-0.35769 0.1672323,-0.52856 0.066187,-0.17089 0.1458037,-0.34098 0.2448753,-0.53156 0.099072,-0.19058 0.2185476,-0.40216 0.3643268,-0.64803 0.1727266,-0.29132 0.3017227,-0.51239 0.4031485,-0.70178 0.1014256,-0.18928 0.1730996,-0.34531 0.2269578,-0.50169 0.053858,-0.1564 0.092415,-0.31539 0.1224377,-0.50766 0.030024,-0.19231 0.053696,-0.41959 0.083616,-0.71671 0.035592,-0.35351 0.060803,-0.56708 0.1045202,-0.77644 0.043717,-0.20939 0.1059438,-0.41453 0.2150124,-0.74658 0.1185294,-0.36084 0.1813971,-0.55888 0.2150127,-0.73462 0.033616,-0.17565 0.037976,-0.32919 0.038822,-0.59726 7.49e-4,-0.25352 -0.00462,-0.41265 -0.029861,-0.57636 -0.025237,-0.16375 -0.070261,-0.33196 -0.1523006,-0.60323 -0.1224598,-0.40491 -0.2168311,-0.76733 -0.283697,-1.09596 -0.066866,-0.32863 -0.1067305,-0.62144 -0.1194516,-0.88992 -0.012722,-0.26847 0.00182,-0.51019 0.041808,-0.73462 0.039975,-0.22443 0.1058702,-0.43361 0.1970947,-0.63012 0.063252,-0.13628 0.1240816,-0.21921 0.2000813,-0.27771 0.076009,-0.0584 0.1718665,-0.0973 0.3225186,-0.12546 0.065813,-0.013 0.1322471,-0.0283 0.1851496,-0.0448 0.026461,-0.009 0.047652,-0.0173 0.068685,-0.0268 0.021033,-0.009 0.039295,-0.013 0.065698,-0.0389 0.039859,-0.0398 0.032978,-0.0534 0.041808,-0.0807 0.00879,-0.0272 0.018305,-0.0612 0.026878,-0.0986 0.017145,-0.0748 0.034029,-0.16959 0.047781,-0.26875 0.025794,-0.18604 0.086588,-0.4459 0.1254241,-0.55246 0.034001,-0.0932 0.055755,-0.13628 0.092575,-0.17328 0.03681,-0.037 0.09829,-0.0746 0.2179988,-0.13433 0.093765,-0.0469 0.1818614,-0.0794 0.2747383,-0.10448 0.092877,-0.0251 0.1905344,-0.0426 0.3046009,-0.0508 0.1647475,-0.0108 0.241182,-0.013 0.2777248,-0.002 0.036533,0.0108 0.064475,0.0335 0.1433417,0.11357 0.038282,0.0387 0.099259,0.1352 0.1761905,0.27773 0.07693,0.14255 0.169817,0.33144 0.268765,0.55843 0.169335,0.38842 0.510254,1.10987 0.761503,1.60961 0.124386,0.24741 0.229056,0.4531 0.331478,0.63308 0.102423,0.17998 0.2014927,0.33664 0.3105737,0.48975 0.109081,0.15315 0.228926,0.302 0.373285,0.46885 0.144359,0.16678 0.314341,0.34923 0.5226,0.57039 0.276755,0.29387 0.591194,0.64394 0.689832,0.76447 l 0.167232,0.20313 -0.01791,0.64502 c -0.01086,0.37609 -0.02438,1.19106 -0.02688,1.81568 l -0.003,1.13479 0.009,0.0387 0.23293,0.53156 c 0.132362,0.29878 0.36759,0.73348 0.528573,0.98248 0.07688,0.11898 0.147145,0.23493 0.197095,0.32552 0.02497,0.0454 0.04394,0.0857 0.05674,0.11357 0.0058,0.013 0.0096,0.0195 0.01194,0.0268 0,-0.009 0.01456,0.0463 -0.0058,0.072 -0.02155,0.0272 -0.05064,0.0383 -0.08953,0.0684 -0.07776,0.0604 -0.20516,0.0883 -0.23616,0.0893 -0.217812,0.006 -0.553633,-0.006 -0.716708,-0.0299 -0.08641,-0.013 -0.154383,-0.0312 -0.235917,-0.002 -0.04076,0.0151 -0.08328,0.0519 -0.101533,0.0956 -0.01824,0.0437 -0.01938,0.0867 -0.01493,0.13433 0.0089,0.0954 0.04134,0.22169 0.101534,0.40316 0.06019,0.18149 0.14813,0.4181 0.262793,0.73761 0.140437,0.39134 0.255514,0.70781 0.361341,0.97352 0.105828,0.26571 0.202053,0.48211 0.298629,0.67191 0.09657,0.18993 0.194908,0.35297 0.307587,0.51664 0.112679,0.16375 0.240051,0.32638 0.39419,0.51365 0.27082,0.32902 0.687275,0.87196 0.919775,1.20048 0.287859,0.40675 0.457739,0.64068 0.749558,0.97353 0.291819,0.33285 0.70558,0.7646 1.481197,1.57078 0.697573,0.72504 1.11782,1.17446 1.388623,1.49315 0.135401,0.15942 0.234881,0.2877 0.310573,0.40017 0.07569,0.11248 0.128888,0.20853 0.17619,0.31057 0.06479,0.13974 0.123242,0.31089 0.179178,0.50765 0.05594,0.19686 0.109579,0.41992 0.155287,0.66893 0.04571,0.249 0.08534,0.52468 0.119452,0.82124 0.03411,0.29655 0.06247,0.61324 0.08362,0.95262 0.03873,0.62177 0.12595,3.06757 0.161259,4.25546 6.415335,-3.25788 10.837229,-10.01587 10.837229,-17.84902 0,-11.00777 -8.708782,-19.93047 -19.452661,-19.93047 z"
       inkscape:connector-curvature="0"
       id="path6193"
       sodipodi:nodetypes="csccscccssccscccccsscccccsscssscscsssscccccccccscscccscscscsccccccccccccccccccsscsscsssscccssscscc" />
    <text
       xml:space="preserve"
       style="font-size:25.65947914px;font-style:normal;font-variant:normal;font-weight:500;font-stretch:normal;text-align:start;line-height:125%;letter-spacing:0px;word-spacing:0px;writing-mode:lr-tb;text-anchor:start;fill:#000000;fill-opacity:1;stroke:none;font-family:Exo;-inkscape-font-specification:Exo Medium"
       x="34.317589"
       y="668.513"
       id="text2983"
       sodipodi:linespacing="125%"><tspan
         sodipodi:role="line"
         id="tspan2985"
         x="34.317589"
         y="668.513"
         style="font-size:25.65947914px;font-style:normal;font-variant:normal;font-weight:500;font-stretch:normal;text-align:start;line-height:125%;writing-mode:lr-tb;text-anchor:start;font-family:Exo;-inkscape-font-specification:Exo Medium">Hack4LT</tspan></text>
  </g>
</svg>
